<svg version="1.1" id="Layer_1" xmlns="http://www.w3.org/2000/svg" xmlns:xlink="http://www.w3.org/1999/xlink" x="0px" y="0px"
	 width="100%" viewBox="0 0 192 192" enable-background="new 0 0 192 192" xml:space="preserve">
<path fill="#010101" opacity="1.000000" stroke="none" 
	d="
M105.000000,193.000000 
	C70.000000,193.000000 35.500004,193.000000 1.000003,193.000000 
	C1.000000,130.333344 1.035659,67.666603 0.903226,5.000222 
	C0.895989,1.575469 1.575321,0.895711 5.000192,0.903153 
	C66.333237,1.036423 127.666718,1.036420 188.999756,0.903159 
	C192.424530,0.895718 193.104294,1.575284 193.096848,5.000181 
	C192.963577,66.333221 192.963593,127.666702 193.096848,188.999741 
	C193.104294,192.424484 192.427399,193.122177 188.999405,193.100220 
	C161.167206,192.921860 133.333344,193.000000 105.000000,193.000000 
z"/>
<path fill="#F0F0F0" opacity="1.000000" stroke="none" 
	d="
M89.124496,35.686169 
	C85.398331,38.194740 83.787621,41.805145 82.028427,45.696602 
	C80.944725,46.987064 81.003448,48.260872 80.997101,49.911873 
	C80.996162,55.947483 80.993935,61.591930 81.001190,67.590355 
	C81.084534,68.748589 80.914696,69.669525 82.263664,70.029129 
	C83.802620,70.140663 84.888603,69.614807 86.293167,69.101410 
	C87.209404,69.008278 87.825218,68.988052 88.734100,68.814194 
	C89.034462,68.741768 89.472809,68.786392 89.692261,68.766991 
	C90.177391,68.680946 90.443062,68.614311 91.099670,68.420776 
	C98.947861,67.345772 106.190292,68.156876 113.601242,70.920143 
	C114.011040,70.896446 114.501282,70.884697 114.721504,70.992508 
	C115.889191,71.856133 116.695442,72.764771 117.839203,73.752808 
	C118.073204,73.944221 118.531433,74.043953 118.764786,74.020943 
	C119.167252,73.822632 119.336380,73.647339 119.703476,73.779129 
	C119.901451,74.086212 119.974190,73.997993 119.946518,74.047501 
	C121.416199,76.015213 124.058464,76.534073 125.603523,78.883286 
	C125.984482,79.433990 126.191895,79.707489 126.622253,80.114853 
	C129.552551,82.043495 130.530167,85.172310 132.686340,87.811691 
	C133.974075,90.767944 136.398285,92.939667 136.047791,96.589439 
	C136.579910,98.444908 136.935165,99.972832 137.906403,101.627243 
	C140.065048,103.689690 139.001007,105.981949 138.915482,107.962349 
	C138.620804,114.785782 140.015213,121.663078 138.118210,128.753555 
	C136.516083,131.512238 136.040573,134.300827 134.879120,137.201996 
	C133.340530,142.360977 129.596893,145.716827 126.833214,149.670776 
	C126.081131,150.746780 125.535988,151.860992 124.632645,153.162720 
	C121.689346,154.167435 119.972000,156.487839 117.348450,157.917053 
	C115.952255,159.523056 113.124611,158.073608 112.359573,160.846954 
	C110.498909,161.127075 108.926697,160.904968 107.238472,161.769989 
	C106.544441,162.061996 106.088631,162.123825 105.303665,162.290924 
	C104.049210,162.506454 103.086426,161.409943 102.098343,162.762329 
	C98.970093,163.063736 95.934532,163.085464 92.442802,163.092163 
	C91.857384,162.117325 91.352303,161.993149 90.278458,162.520172 
	C89.533340,162.482956 89.096741,162.373184 88.322540,162.248825 
	C87.241119,161.899078 86.661331,161.281830 85.579651,160.909393 
	C82.788399,159.495850 79.654175,159.584778 77.299561,157.193985 
	C76.983315,157.099869 76.512016,157.011322 76.283844,156.937622 
	C75.074471,156.094162 74.225044,155.169891 72.906876,154.369965 
	C71.865685,153.998688 71.128876,153.695801 70.241585,153.131134 
	C69.443863,152.474533 68.957184,151.900543 68.252563,151.155945 
	C68.079750,150.935013 68.005920,150.994308 68.035645,150.957458 
	C66.321213,149.861069 66.160736,147.561417 64.337234,146.154480 
	C64.140907,145.898697 64.048546,145.930405 64.080460,145.893448 
	C63.335732,145.487854 63.416313,144.477371 62.490349,143.936295 
	C59.948524,138.878479 57.037205,134.312134 55.836502,128.728180 
	C53.813305,119.319168 53.605221,110.122559 56.044193,100.462158 
	C57.955753,96.628006 58.996975,92.812889 61.125107,89.106842 
	C62.177040,86.883408 63.167351,85.029938 64.720566,83.087608 
	C65.933792,82.041603 66.904915,81.242325 67.996101,79.976814 
	C70.435562,78.065163 71.088455,75.917793 71.052612,73.227295 
	C70.940720,64.828537 70.962845,56.426701 71.071136,47.637684 
	C71.655983,42.190735 74.470253,37.765350 75.151031,32.386738 
	C75.035400,31.104486 75.663338,31.020687 76.651459,30.914022 
	C79.457893,29.423378 81.291534,27.200911 83.780121,25.257715 
	C84.021149,25.029419 83.905960,24.999323 83.909378,24.939892 
	C84.945526,24.200754 85.866432,23.383583 87.085030,22.539484 
	C88.052177,22.364679 88.709824,22.202271 89.697365,22.143772 
	C94.763840,20.709702 99.508461,20.319103 104.626007,22.285103 
	C107.519966,21.708761 108.098671,24.800343 110.474503,25.162109 
	C113.762718,26.115555 115.744385,28.194530 117.742813,30.786324 
	C118.145447,31.321384 118.320297,31.610872 118.744034,31.953468 
	C119.428207,32.395073 119.766495,32.844349 119.885147,33.717739 
	C119.932304,34.882442 119.829758,35.814964 120.882050,36.681976 
	C122.575485,39.394268 123.905556,41.847115 122.795235,44.874645 
	C122.771065,44.940586 123.394455,44.592247 124.062981,44.819759 
	C122.217041,50.850693 122.979485,56.970688 123.034790,63.493355 
	C122.704033,68.231667 119.967911,68.286629 116.433182,67.175308 
	C115.461540,66.418610 114.809532,65.966881 114.266685,65.217285 
	C113.546173,60.118809 114.273788,55.272278 113.882492,50.060997 
	C113.737747,49.409229 113.659821,49.153248 113.521912,48.500389 
	C112.076401,46.518753 112.441788,44.027325 110.653526,42.321457 
	C110.349335,41.474499 110.396957,40.893742 110.299881,40.050766 
	C109.222794,38.732391 108.194725,37.694542 107.060471,36.358139 
	C105.807007,34.703751 104.412071,33.946022 102.291626,34.121231 
	C102.004768,33.994797 102.000000,34.000000 102.002274,33.997299 
	C97.326050,30.517225 93.227112,32.411209 89.124496,35.686169 
z"/>
<path fill="#8B8B8B" opacity="1.000000" stroke="none" 
	d="
M71.684753,45.731937 
	C71.984108,55.349091 71.884331,64.672325 72.064194,73.990166 
	C72.121368,76.951805 71.352859,79.172119 68.540749,80.909721 
	C67.639427,81.389801 67.021576,81.518288 65.960945,81.173035 
	C69.549423,77.994576 70.266136,74.030182 70.083168,69.299210 
	C69.791626,61.761044 70.172539,54.196865 70.512650,46.305473 
	C70.968781,45.790154 71.181335,45.613045 71.684753,45.731937 
z"/>
<path fill="#A7A7A7" opacity="1.000000" stroke="none" 
	d="
M136.751373,130.280777 
	C138.999313,120.685822 138.912048,111.153595 136.595795,101.247482 
	C136.733490,100.816284 136.955780,100.736084 137.479736,100.842094 
	C140.875229,103.015160 139.231369,106.450996 140.158112,109.506241 
	C138.794739,113.021812 139.758469,116.230927 139.801819,119.684914 
	C139.916641,123.244232 140.198914,126.568253 138.075027,129.742477 
	C137.569122,130.104401 137.348419,130.238434 136.751373,130.280777 
z"/>
<path fill="#9D9D9D" opacity="1.000000" stroke="none" 
	d="
M113.867706,70.569962 
	C113.371803,72.570900 112.258492,71.894562 111.155258,71.507507 
	C104.951988,69.331177 98.593704,68.383942 91.571838,69.134369 
	C90.931419,68.890663 90.745285,68.678482 90.317001,68.118988 
	C90.998070,66.993614 92.110741,66.956024 93.649216,67.021744 
	C95.802818,67.956451 97.641037,67.374062 99.706879,67.235870 
	C104.937607,66.488304 109.295410,68.517937 113.867706,70.569962 
z"/>
<path fill="#9D9D9D" opacity="1.000000" stroke="none" 
	d="
M89.260132,35.729935 
	C88.736671,35.620834 88.147743,35.063999 88.245644,34.886959 
	C90.279419,31.209053 98.916115,30.190311 102.086143,33.595505 
	C97.617897,32.578274 93.524956,33.666855 89.260132,35.729935 
z"/>
<path fill="#7E7E7E" opacity="1.000000" stroke="none" 
	d="
M104.811203,22.049496 
	C100.105392,22.309166 95.212387,21.775339 90.203667,22.595413 
	C92.632645,19.246323 99.266953,18.987078 104.811203,22.049496 
z"/>
<path fill="#8B8B8B" opacity="1.000000" stroke="none" 
	d="
M62.443062,88.700134 
	C60.014492,92.312325 59.938122,97.002602 56.515656,100.128952 
	C55.905682,95.579735 58.209999,91.988998 60.695671,88.167603 
	C61.443081,88.010307 61.851337,88.174507 62.443062,88.700134 
z"/>
<path fill="#D0D0D0" opacity="1.000000" stroke="none" 
	d="
M72.139481,45.684166 
	C71.772652,46.012543 71.569679,45.997147 71.061478,45.974503 
	C70.897583,41.173222 73.155128,37.008972 74.931892,32.333332 
	C77.295547,32.917664 77.018471,34.347298 76.030479,35.958500 
	C74.245857,38.868843 73.002319,41.997215 72.139481,45.684166 
z"/>
<path fill="#9D9D9D" opacity="1.000000" stroke="none" 
	d="
M80.399178,70.170502 
	C80.087479,63.279430 80.046844,56.638462 80.032509,49.534073 
	C82.031494,48.975342 81.431442,50.506516 81.454330,51.462093 
	C81.555550,55.686878 81.419312,59.914696 81.715637,64.549423 
	C81.960571,66.006607 82.026016,67.055061 82.108772,68.498520 
	C82.226479,69.118149 82.326874,69.342773 82.259102,69.896072 
	C81.638832,70.445717 81.166321,70.518593 80.399178,70.170502 
z"/>
<path fill="#9D9D9D" opacity="1.000000" stroke="none" 
	d="
M77.005432,157.454712 
	C80.233635,156.733643 82.722893,158.689850 85.772278,160.037949 
	C86.116158,160.678711 85.964287,161.091537 85.279541,161.464813 
	C81.619972,161.721451 79.351440,159.706100 77.005432,157.454712 
z"/>
<path fill="#555555" opacity="1.000000" stroke="none" 
	d="
M115.970657,67.192642 
	C118.744377,67.338493 121.161217,67.176758 122.927002,64.283310 
	C123.327339,63.980980 123.562218,64.007065 124.143669,63.973076 
	C124.639275,66.646416 123.133636,68.504829 120.688538,68.740982 
	C119.210609,68.883713 116.675842,70.720337 115.970657,67.192642 
z"/>
<path fill="#BFBFBF" opacity="1.000000" stroke="none" 
	d="
M81.942902,64.494675 
	C79.719925,59.990086 81.976288,54.664711 80.358917,49.349064 
	C80.042007,47.918118 79.805672,46.692680 81.434052,45.939201 
	C81.850319,51.948311 81.920494,57.989758 81.942902,64.494675 
z"/>
<path fill="#8B8B8B" opacity="1.000000" stroke="none" 
	d="
M133.014755,87.717896 
	C129.026337,87.275581 128.999908,83.181137 126.817390,80.605492 
	C130.561737,81.189049 131.569016,84.524010 133.014755,87.717896 
z"/>
<path fill="#6D6D6D" opacity="1.000000" stroke="none" 
	d="
M124.634018,44.746792 
	C123.209518,45.179970 121.750183,45.389675 122.157799,43.621605 
	C122.690269,41.311954 120.258820,39.876877 120.899780,37.340439 
	C124.389420,38.435810 123.410362,42.121719 124.634018,44.746792 
z"/>
<path fill="#A7A7A7" opacity="1.000000" stroke="none" 
	d="
M83.653839,24.958908 
	C83.072304,28.500801 80.215668,29.947739 77.142654,31.095890 
	C78.130241,27.855732 80.130371,25.758907 83.653839,24.958908 
z"/>
<path fill="#6D6D6D" opacity="1.000000" stroke="none" 
	d="
M118.033791,30.667824 
	C114.373871,31.060940 113.759209,27.068918 110.935242,25.577131 
	C114.512489,25.111332 116.916649,26.825678 118.033791,30.667824 
z"/>
<path fill="#AEAEAE" opacity="1.000000" stroke="none" 
	d="
M113.786469,49.390053 
	C116.140518,54.014881 114.385803,59.288353 114.701691,64.660721 
	C113.897820,64.496758 113.419792,64.074104 112.988464,63.313202 
	C114.102272,58.612453 113.190819,54.169426 113.786469,49.390053 
z"/>
<path fill="#D0D0D0" opacity="1.000000" stroke="none" 
	d="
M136.207321,130.422455 
	C136.611588,130.157516 136.848145,130.125961 137.437286,130.032379 
	C137.627716,132.578827 137.250626,135.112442 135.008636,137.302826 
	C133.394867,134.880798 135.445297,132.909592 136.207321,130.422455 
z"/>
<path fill="#7E7E7E" opacity="1.000000" stroke="none" 
	d="
M125.724220,78.817001 
	C123.308037,78.374100 120.890022,77.517052 119.853500,74.466957 
	C122.889366,74.171753 124.550049,75.968163 125.724220,78.817001 
z"/>
<path fill="#6D6D6D" opacity="1.000000" stroke="none" 
	d="
M124.654694,63.477188 
	C124.490234,63.913002 124.470619,63.939568 124.486702,63.952187 
	C123.564491,59.217247 124.157021,54.456970 124.819153,49.682667 
	C124.819153,54.135567 124.819153,58.588470 124.654694,63.477188 
z"/>
<path fill="#FFFFFF" opacity="1.000000" stroke="none" 
	d="
M113.937508,48.836788 
	C113.902336,53.490269 113.804024,57.979450 113.370438,62.721790 
	C112.961411,58.250340 112.887657,53.525730 113.137924,48.452324 
	C113.623146,48.275974 113.760620,48.465630 113.937508,48.836788 
z"/>
<path fill="#AEAEAE" opacity="1.000000" stroke="none" 
	d="
M62.859650,88.715004 
	C62.247307,88.803391 61.825115,88.656853 61.193844,88.243240 
	C61.714268,86.302711 62.101139,84.383957 64.656540,83.499611 
	C65.655334,85.572067 63.193474,86.535240 62.859650,88.715004 
z"/>
<path fill="#9D9D9D" opacity="1.000000" stroke="none" 
	d="
M117.529724,158.173431 
	C118.104004,154.976562 120.650841,153.775360 123.976074,153.218811 
	C122.655632,155.577362 120.116707,156.653580 117.529724,158.173431 
z"/>
<path fill="#929292" opacity="1.000000" stroke="none" 
	d="
M64.109924,146.251770 
	C67.618530,145.314529 66.942749,148.661346 68.130493,150.551697 
	C65.380615,150.734482 65.029045,148.393219 64.109924,146.251770 
z"/>
<path fill="#9D9D9D" opacity="1.000000" stroke="none" 
	d="
M102.150902,34.327621 
	C104.168068,32.671421 105.975342,32.672215 107.007973,35.707008 
	C105.102356,36.590149 103.694588,35.642311 102.150902,34.327621 
z"/>
<path fill="#D0D0D0" opacity="1.000000" stroke="none" 
	d="
M137.934372,100.692291 
	C137.572708,100.985130 137.364029,100.941971 136.833282,100.897652 
	C135.948151,99.772087 134.888428,98.778412 135.800034,97.158318 
	C137.843140,97.422234 138.075546,98.821785 137.934372,100.692291 
z"/>
<path fill="#676767" opacity="1.000000" stroke="none" 
	d="
M102.166306,163.246216 
	C101.772926,162.494263 101.540192,161.946503 101.307465,161.398758 
	C102.530014,161.336594 103.818962,160.376663 104.957977,162.031860 
	C104.373199,163.453827 103.472473,163.759506 102.166306,163.246216 
z"/>
<path fill="#676767" opacity="1.000000" stroke="none" 
	d="
M107.387253,162.090820 
	C107.747200,158.815872 109.891731,159.738052 111.964188,160.609436 
	C110.980087,162.586868 109.070038,161.374756 107.387253,162.090820 
z"/>
<path fill="#F7F7F7" opacity="1.000000" stroke="none" 
	d="
M140.113159,119.542725 
	C137.788422,116.934891 139.071686,113.613503 139.710480,110.151932 
	C140.106262,112.988503 140.138657,116.039398 140.113159,119.542725 
z"/>
<path fill="#555555" opacity="1.000000" stroke="none" 
	d="
M81.680901,70.402725 
	C81.825989,69.888947 81.889343,69.690872 82.039398,69.193161 
	C83.504913,68.563385 84.883728,68.233253 86.619392,67.940063 
	C87.367249,68.365616 87.525703,68.833054 87.245583,69.708130 
	C85.594421,70.433044 84.149315,70.829155 82.325668,71.247711 
	C81.831146,71.086243 81.715164,70.902344 81.680901,70.402725 
z"/>
<path fill="#9D9D9D" opacity="1.000000" stroke="none" 
	d="
M117.985832,73.593857 
	C116.379799,74.190674 115.031448,73.900925 114.879425,71.474609 
	C117.114311,70.177116 117.115112,72.250107 117.985832,73.593857 
z"/>
<path fill="#AEAEAE" opacity="1.000000" stroke="none" 
	d="
M72.672356,154.655945 
	C74.301529,153.847534 75.785400,153.817215 76.080231,156.471985 
	C74.250053,157.499405 73.394249,156.436996 72.672356,154.655945 
z"/>
<path fill="#676767" opacity="1.000000" stroke="none" 
	d="
M87.051910,22.382513 
	C87.781914,24.794876 86.129585,24.972805 84.250916,25.072865 
	C83.859360,22.956598 84.983238,22.278635 87.051910,22.382513 
z"/>
<path fill="#676767" opacity="1.000000" stroke="none" 
	d="
M90.004990,162.840363 
	C89.819969,160.634018 91.166718,160.979630 92.216080,161.278793 
	C93.562019,161.662506 92.116516,162.125885 92.065735,162.824295 
	C91.345093,164.391678 90.691315,163.514389 90.004990,162.840363 
z"/>
<path fill="#676767" opacity="1.000000" stroke="none" 
	d="
M85.187027,161.674561 
	C85.266144,161.201569 85.598587,160.909088 86.006004,160.406830 
	C87.269081,159.924393 87.643944,160.612579 87.869606,161.923767 
	C86.931900,163.482422 86.238182,162.319504 85.187027,161.674561 
z"/>
<path fill="#929292" opacity="1.000000" stroke="none" 
	d="
M62.326530,144.128418 
	C62.737438,143.533478 63.238976,143.224380 63.740513,142.915283 
	C63.922443,143.696671 64.104370,144.478058 64.199333,145.557968 
	C63.306225,145.659119 62.633869,145.304489 62.326530,144.128418 
z"/>
<path fill="#7E7E7E" opacity="1.000000" stroke="none" 
	d="
M65.551147,83.319519 
	C65.210373,83.377953 64.957390,83.325211 64.832581,83.291763 
	C64.013260,82.424019 64.869431,81.900421 65.334953,81.077911 
	C66.149666,80.941757 66.738930,80.981071 67.771599,81.039261 
	C67.633057,81.995338 67.350624,83.248413 65.551147,83.319519 
z"/>
<path fill="#FFFFFF" opacity="1.000000" stroke="none" 
	d="
M99.559517,66.959641 
	C98.353661,68.983521 96.356911,68.023361 94.254456,67.406082 
	C95.755791,67.017700 97.447998,66.955055 99.559517,66.959641 
z"/>
<path fill="#929292" opacity="1.000000" stroke="none" 
	d="
M68.060440,151.275177 
	C69.274033,150.507889 69.804153,151.217834 70.142120,152.519379 
	C68.967010,153.171890 68.416267,152.537140 68.060440,151.275177 
z"/>
<path fill="#A7A7A7" opacity="1.000000" stroke="none" 
	d="
M87.388779,70.048065 
	C87.032616,69.580368 87.025703,69.123810 86.997513,68.322128 
	C87.632034,68.009743 88.287834,68.042473 88.989044,68.408485 
	C89.061310,69.632591 88.452873,69.898254 87.388779,70.048065 
z"/>
<path fill="#6D6D6D" opacity="1.000000" stroke="none" 
	d="
M120.174614,33.889145 
	C119.113602,33.867977 118.916473,33.310268 118.936394,32.320675 
	C120.521156,31.731640 120.873863,32.435452 120.174614,33.889145 
z"/>
<path fill="#555555" opacity="1.000000" stroke="none" 
	d="
M110.110565,40.069508 
	C111.266068,40.059345 111.238693,40.853409 110.917572,41.826637 
	C109.050262,42.041397 109.546844,41.189362 110.110565,40.069508 
z"/>
<path fill="#7E7E7E" opacity="1.000000" stroke="none" 
	d="
M119.872887,73.901917 
	C119.901451,74.086212 119.436951,74.173439 119.217545,74.085686 
	C119.319756,74.023926 119.180916,72.659874 119.872887,73.901917 
z"/>
<path fill="#555555" opacity="1.000000" stroke="none" 
	d="
M89.944916,67.904243 
	C90.328079,67.931282 90.581284,68.090874 90.976013,68.676651 
	C90.896935,69.110298 90.676323,69.117760 90.183716,68.936409 
	C89.704926,68.533684 89.672676,68.296753 89.944916,67.904243 
z"/>
<path fill="#050505" opacity="1.000000" stroke="none" 
	d="
M67.025291,126.293259 
	C67.000893,125.831703 67.006523,125.664177 67.019043,125.245331 
	C66.741386,124.102592 65.889702,123.588249 65.383659,122.423141 
	C64.915276,120.897346 65.043793,119.666153 65.005898,118.059875 
	C65.004913,116.352921 65.005974,115.031441 65.007248,113.300827 
	C65.039871,111.791145 64.949554,110.674706 65.680603,109.295395 
	C67.711449,100.533333 71.076836,92.928596 77.548370,87.110245 
	C80.449959,84.882889 83.354721,82.691582 87.524612,81.991028 
	C88.427849,81.553177 88.847069,81.068695 89.682404,80.639824 
	C90.441948,80.405487 90.895065,80.250397 91.710876,80.079010 
	C92.904106,78.976913 94.137314,79.052216 95.657639,78.893959 
	C97.095222,78.975166 98.181221,79.104012 99.664230,79.344185 
	C100.536995,79.324554 101.006828,79.343163 101.743286,79.749481 
	C102.439255,80.021927 102.862663,80.056221 103.589294,80.188499 
	C104.445793,80.408760 105.025429,80.399147 105.671005,80.881454 
	C106.513901,81.181793 107.244873,81.220306 108.343102,81.390350 
	C108.623459,83.159164 109.782646,82.781395 111.026237,82.691132 
	C112.505478,82.859344 113.113411,83.697159 113.634125,85.022797 
	C113.921631,85.580368 114.126442,85.829857 114.564621,86.173256 
	C115.534912,86.522263 116.050575,87.102783 116.925758,87.651520 
	C117.453629,88.056969 117.721405,88.347961 118.295303,88.557037 
	C119.136772,89.777603 120.960175,89.313866 121.707870,90.865036 
	C122.216812,91.701088 122.527969,92.268448 123.162224,92.897942 
	C125.078964,96.722580 126.429482,100.591484 128.680923,104.390297 
	C127.461632,105.335480 128.151321,106.664818 128.135254,108.408875 
	C128.498566,108.881317 128.960495,107.634888 129.124557,108.983589 
	C129.240265,109.934761 128.995926,110.943802 129.408829,112.266846 
	C129.951660,114.102348 130.138199,115.580429 129.471512,117.445793 
	C128.775406,119.268532 129.283615,120.949226 128.216187,122.651222 
	C127.581825,127.704567 125.944756,131.900818 122.337372,135.618500 
	C122.104874,136.575714 121.861443,137.127396 121.299744,137.866547 
	C121.131966,138.121780 121.004044,138.003662 121.063820,138.066925 
	C119.465027,139.092331 118.673019,140.812897 117.261147,142.440247 
	C115.648209,142.717819 114.868431,143.406784 114.384735,144.944504 
	C113.068703,145.631561 113.048859,146.806183 112.247101,147.809357 
	C111.865913,148.106155 111.677780,148.171524 111.223824,148.373245 
	C108.382401,147.986084 106.624329,149.980927 104.068443,150.749481 
	C99.682945,151.658356 95.653801,150.780518 91.234222,150.819321 
	C87.799065,149.263962 84.330772,148.714722 81.250931,146.412109 
	C75.041039,143.253906 72.776520,136.934250 68.408623,132.515823 
	C67.691368,131.790268 67.905449,130.144012 67.805756,128.518646 
	C67.557198,127.648369 67.206100,127.174721 67.025291,126.293259 
z"/>
<path fill="#B5B5B5" opacity="1.000000" stroke="none" 
	d="
M89.808823,150.087616 
	C94.702354,150.627899 99.372322,151.099182 104.495636,149.519135 
	C105.099640,149.741257 105.236755,150.012024 105.193985,150.700974 
	C100.293884,153.833664 95.369385,152.297409 90.224022,151.607880 
	C89.831139,151.103516 89.709862,150.808197 89.808823,150.087616 
z"/>
<path fill="#A7A7A7" opacity="1.000000" stroke="none" 
	d="
M129.093246,104.338531 
	C128.690659,104.765793 128.187897,105.104568 128.178970,105.092018 
	C125.567879,101.421867 123.525665,97.481964 123.042343,92.995071 
	C126.870247,95.909424 127.806091,100.121941 129.093246,104.338531 
z"/>
<path fill="#929292" opacity="1.000000" stroke="none" 
	d="
M89.780823,149.426880 
	C90.029976,149.951859 90.030891,150.241348 89.992111,150.964844 
	C86.642830,150.631683 83.344292,149.842361 80.975258,146.653046 
	C84.091316,146.270981 86.703888,148.058472 89.780823,149.426880 
z"/>
<path fill="#929292" opacity="1.000000" stroke="none" 
	d="
M105.365173,151.123276 
	C104.995964,150.844788 104.977837,150.570389 104.961113,149.883224 
	C106.865868,148.662308 108.194130,145.862305 110.918671,148.135895 
	C109.672356,150.306488 107.683960,150.696228 105.365173,151.123276 
z"/>
<path fill="#676767" opacity="1.000000" stroke="none" 
	d="
M117.021530,143.006546 
	C116.772392,140.100128 118.552933,139.058563 120.778061,138.111023 
	C120.557358,140.488419 120.524780,143.261520 117.021530,143.006546 
z"/>
<path fill="#7E7E7E" opacity="1.000000" stroke="none" 
	d="
M65.527603,112.742249 
	C65.881935,114.356949 65.947472,115.773811 65.954712,117.613541 
	C65.531052,118.367531 65.102097,118.484726 64.356247,118.181099 
	C64.037659,116.569168 63.980820,115.192650 63.953846,113.402939 
	C64.334167,112.649910 64.755783,112.510620 65.527603,112.742249 
z"/>
<path fill="#A7A7A7" opacity="1.000000" stroke="none" 
	d="
M64.050125,118.331161 
	C64.495674,117.953041 64.896851,117.960388 65.597214,118.002075 
	C66.006409,119.421967 66.116409,120.807526 66.295868,122.605171 
	C66.126862,123.136551 65.888397,123.255844 65.297218,123.186539 
	C63.616222,121.793480 64.159424,120.178658 64.050125,118.331161 
z"/>
<path fill="#555555" opacity="1.000000" stroke="none" 
	d="
M128.280396,122.742966 
	C127.610580,121.382095 127.770874,119.845528 128.578522,118.168968 
	C129.088730,117.844040 129.244766,117.675766 129.722153,117.630898 
	C130.047470,119.495529 130.481491,121.366600 128.280396,122.742966 
z"/>
<path fill="#B5B5B5" opacity="1.000000" stroke="none" 
	d="
M113.928101,85.076004 
	C112.372330,85.186096 112.161324,83.992165 111.322655,82.992813 
	C110.850960,82.717133 110.695778,82.534866 110.771126,82.077309 
	C113.571678,81.459854 114.472778,82.326897 113.928101,85.076004 
z"/>
<path fill="#A7A7A7" opacity="1.000000" stroke="none" 
	d="
M65.884460,112.543045 
	C65.408646,112.938454 65.000885,112.936821 64.288422,112.962463 
	C64.444046,111.625351 62.778500,109.564941 65.627747,108.921028 
	C65.935989,110.020393 65.944252,111.083191 65.884460,112.543045 
z"/>
<path fill="#676767" opacity="1.000000" stroke="none" 
	d="
M95.898407,78.483978 
	C95.403061,80.366905 93.920639,79.885193 92.440567,80.155075 
	C92.253799,77.391724 93.965393,77.650871 95.898407,78.483978 
z"/>
<path fill="#A7A7A7" opacity="1.000000" stroke="none" 
	d="
M121.908241,90.820404 
	C120.149590,91.396683 119.056786,90.413353 118.364395,88.799072 
	C120.722321,87.494835 121.360481,88.929451 121.908241,90.820404 
z"/>
<path fill="#555555" opacity="1.000000" stroke="none" 
	d="
M128.955795,112.245239 
	C127.427780,111.329636 128.018738,110.200813 128.019669,109.144974 
	C130.669220,108.109589 129.668900,110.240982 130.015823,111.574646 
	C129.762421,112.147995 129.533447,112.328987 128.955795,112.245239 
z"/>
<path fill="#676767" opacity="1.000000" stroke="none" 
	d="
M90.094574,80.175545 
	C89.878311,81.455879 89.146606,81.669624 88.188995,81.928833 
	C88.620590,79.142296 88.620590,79.142296 90.094574,80.175545 
z"/>
<path fill="#929292" opacity="1.000000" stroke="none" 
	d="
M112.426056,148.031311 
	C112.464233,147.052597 111.143570,145.305908 113.721779,145.125687 
	C115.015297,146.719208 114.013603,147.419037 112.426056,148.031311 
z"/>
<path fill="#676767" opacity="1.000000" stroke="none" 
	d="
M102.111229,79.745758 
	C101.472702,79.970772 100.929558,79.953911 100.223831,79.696274 
	C100.050430,77.552307 101.441170,77.986656 102.371506,78.282646 
	C103.639488,78.686043 102.242889,79.076744 102.111229,79.745758 
z"/>
<path fill="#FFFFFF" opacity="1.000000" stroke="none" 
	d="
M128.683716,112.406342 
	C128.837830,111.978142 129.068542,111.975792 129.645325,111.970230 
	C129.991379,111.967010 129.949768,112.420403 129.953491,112.648018 
	C130.824921,113.946381 130.386490,115.192337 130.188812,116.761368 
	C129.951111,117.148613 129.966568,117.456154 130.005035,117.605232 
	C129.856384,117.788750 129.669250,117.823189 129.207413,117.934982 
	C128.875229,116.285606 128.817764,114.558899 128.683716,112.406342 
z"/>
<path fill="#444444" opacity="1.000000" stroke="none" 
	d="
M64.926613,123.342346 
	C65.181206,122.983955 65.417892,122.969978 66.009949,122.986626 
	C67.508934,123.060173 67.912605,123.582542 67.232277,124.833817 
	C66.242661,124.683830 65.093880,124.965645 64.926613,123.342346 
z"/>
<path fill="#676767" opacity="1.000000" stroke="none" 
	d="
M110.711273,81.812653 
	C111.007179,81.984894 111.012711,82.167770 111.012192,82.625023 
	C109.504051,84.532028 108.954094,83.126175 108.505356,81.786697 
	C109.280540,81.622360 109.850708,81.722824 110.711273,81.812653 
z"/>
<path fill="#676767" opacity="1.000000" stroke="none" 
	d="
M121.503708,138.144897 
	C121.276962,137.482651 121.421967,136.843521 121.888611,136.083130 
	C122.797981,135.774475 123.650925,135.350922 123.862961,136.116852 
	C124.296600,137.683273 122.775276,137.696472 121.503708,138.144897 
z"/>
<path fill="#BFBFBF" opacity="1.000000" stroke="none" 
	d="
M81.491028,70.048782 
	C81.794487,70.284012 81.826347,70.481018 81.902664,70.974075 
	C80.742851,72.500725 80.273766,71.832611 80.088272,70.227676 
	C80.491882,69.950447 80.855652,69.980499 81.491028,70.048782 
z"/>
<path fill="#444444" opacity="1.000000" stroke="none" 
	d="
M66.688980,126.132858 
	C67.376335,126.495880 67.757408,126.992546 68.030449,127.801605 
	C66.584045,128.185837 65.637421,127.931175 66.688980,126.132858 
z"/>
<path fill="#7E7E7E" opacity="1.000000" stroke="none" 
	d="
M117.211655,87.412109 
	C116.158760,88.225540 115.520073,87.691452 114.889221,86.585541 
	C115.744385,86.119942 116.696983,85.953629 117.211655,87.412109 
z"/>
<path fill="#BFBFBF" opacity="1.000000" stroke="none" 
	d="
M130.244644,116.937683 
	C129.959824,116.009666 129.968552,114.870712 129.967239,113.303696 
	C131.436310,113.965424 131.097321,115.329491 130.244644,116.937683 
z"/>
<path fill="#676767" opacity="1.000000" stroke="none" 
	d="
M105.823563,80.831421 
	C105.237282,81.030846 104.691628,80.918411 104.019241,80.546234 
	C104.555946,80.311699 105.487602,78.067902 105.823563,80.831421 
z"/>
<path fill="#050505" opacity="1.000000" stroke="none" 
	d="
M71.333084,92.698578 
	C71.344589,92.414963 71.564964,92.352768 71.785332,92.290573 
	C71.704201,92.500381 71.623077,92.710197 71.333084,92.698578 
z"/>
<path fill="#F7F7F7" opacity="1.000000" stroke="none" 
	d="
M90.173706,136.431091 
	C88.635551,135.824554 87.147270,135.372299 87.056961,133.309296 
	C86.063545,131.906815 86.008820,130.577332 86.017715,129.240677 
	C86.092796,117.961472 85.794235,106.680565 86.339325,94.951744 
	C87.761635,92.344887 89.863441,93.239006 92.138031,93.120239 
	C94.211685,93.631607 95.382851,94.547615 95.890198,96.668915 
	C96.066994,105.722946 95.950325,114.332802 96.020660,123.337006 
	C96.068558,123.983932 96.102264,124.236099 96.296486,124.823090 
	C98.350769,126.660858 100.486275,125.889893 102.891426,125.700806 
	C103.474670,125.570328 103.715271,125.544571 104.322166,125.502899 
	C107.147568,124.724640 109.671089,125.071266 112.555847,125.098534 
	C113.180176,125.235535 113.422028,125.326202 113.957611,125.671722 
	C114.318375,126.177292 114.385391,126.428009 114.473038,127.067558 
	C114.867020,128.987274 115.183426,130.518784 114.506607,132.455719 
	C114.431145,133.404617 114.220543,133.883530 113.528839,134.553268 
	C112.298302,135.564423 111.278351,135.877518 109.686646,135.525299 
	C103.065765,136.505707 96.782875,135.546967 90.173706,136.431091 
z"/>
<path fill="#676767" opacity="1.000000" stroke="none" 
	d="
M87.419922,93.933319 
	C87.268852,106.858582 87.232254,119.471474 87.094818,132.544281 
	C86.432053,132.829880 85.870132,132.655579 85.249283,132.186066 
	C85.896019,120.564911 85.376701,109.229080 85.281227,97.476501 
	C85.060143,96.585381 85.021545,96.115883 85.048828,95.297920 
	C85.264297,94.782272 85.413879,94.615097 85.776588,94.187531 
	C86.000854,93.750854 86.011986,93.574585 86.085403,93.140800 
	C86.353287,92.800484 86.558868,92.717674 87.046310,92.811600 
	C87.396904,93.199211 87.465645,93.410088 87.419922,93.933319 
z"/>
<path fill="#8B8B8B" opacity="1.000000" stroke="none" 
	d="
M90.223663,136.781677 
	C90.164742,134.324982 91.980278,134.981659 93.324188,134.972198 
	C98.628487,134.934814 103.933578,135.009506 109.697662,135.184723 
	C110.191437,135.513596 110.225906,135.700363 110.000336,136.003448 
	C103.461807,138.143158 97.022118,136.577087 90.223663,136.781677 
z"/>
<path fill="#7E7E7E" opacity="1.000000" stroke="none" 
	d="
M85.057030,97.517822 
	C86.660187,98.545677 85.983368,100.471703 85.978447,102.197304 
	C85.950798,111.890251 85.815086,121.582878 85.453308,131.583252 
	C85.132019,120.587517 85.073662,109.284142 85.057030,97.517822 
z"/>
<path fill="#A7A7A7" opacity="1.000000" stroke="none" 
	d="
M96.306625,125.932610 
	C94.013641,123.577118 95.106766,120.693123 95.039543,118.035301 
	C94.869347,111.306053 95.033272,104.568352 95.118317,97.361336 
	C95.568512,96.585670 96.015282,96.477089 96.810013,96.727333 
	C97.131981,97.114662 97.150200,97.310005 97.051918,97.775581 
	C96.022781,99.883171 96.689529,101.845589 96.484634,104.159851 
	C96.484818,108.565193 96.484535,112.549667 96.485168,116.956398 
	C96.509178,119.327209 96.429222,121.276703 96.736450,123.589745 
	C96.934532,123.955002 97.235451,124.302406 97.226280,124.532028 
	C97.161133,125.201706 96.952522,125.555733 96.306625,125.932610 
z"/>
<path fill="#6D6D6D" opacity="1.000000" stroke="none" 
	d="
M97.118576,96.539688 
	C96.683174,96.893105 96.252586,96.866882 95.497627,96.864647 
	C94.969269,95.798012 94.340714,95.026764 93.143295,94.304672 
	C92.579109,93.680740 92.459015,93.204994 92.759384,92.360596 
	C95.990273,91.768463 96.940666,93.577179 97.118576,96.539688 
z"/>
<path fill="#FFFFFF" opacity="1.000000" stroke="none" 
	d="
M96.631607,117.517807 
	C96.155907,113.624275 96.113991,109.291443 96.475464,104.484085 
	C96.941025,108.365875 97.003212,112.722191 96.631607,117.517807 
z"/>
<path fill="#010101" opacity="1.000000" stroke="none" 
	d="
M114.108810,125.831322 
	C110.849846,126.239601 107.794998,126.234428 104.286118,126.136047 
	C103.734840,125.833527 103.637611,125.624222 103.809036,125.196587 
	C104.077705,124.978264 104.383865,125.022354 104.538132,125.033295 
	C107.361198,123.985580 110.144028,124.744400 113.321991,124.599030 
	C113.956367,124.917053 114.134651,125.167465 114.108810,125.831322 
z"/>
<path fill="#373737" opacity="1.000000" stroke="none" 
	d="
M114.111900,124.906204 
	C111.151299,125.113647 108.403175,125.078362 105.173729,125.043655 
	C107.295799,122.951088 110.323486,124.377571 113.580429,124.059387 
	C114.124123,124.282829 114.224251,124.473152 114.111900,124.906204 
z"/>
<path fill="#444444" opacity="1.000000" stroke="none" 
	d="
M109.792801,136.123444 
	C109.740280,136.119781 110.123314,135.815063 110.140137,135.570953 
	C110.898857,134.953903 111.640755,134.580978 112.686066,134.111450 
	C113.313202,134.210083 113.633492,134.410828 114.013748,134.893799 
	C113.932838,136.654495 113.030548,137.169403 111.296234,137.012115 
	C110.789536,136.787308 110.634811,136.621017 110.202789,136.256775 
	C109.925484,136.058838 109.845322,136.127090 109.792801,136.123444 
z"/>
<path fill="#FFFFFF" opacity="1.000000" stroke="none" 
	d="
M103.651337,124.912262 
	C104.049995,125.158752 104.022293,125.339233 103.913338,125.781281 
	C103.832077,126.042839 103.606689,125.962112 103.487686,125.949203 
	C101.250015,127.003815 98.999390,126.304970 96.389435,126.200569 
	C95.968842,125.974869 95.971687,126.011040 95.986481,126.020416 
	C96.223625,125.700409 96.445992,125.371025 96.942734,124.901657 
	C99.219727,124.789856 101.222351,124.818062 103.651337,124.912262 
z"/>
<path fill="#A7A7A7" opacity="1.000000" stroke="none" 
	d="
M92.717667,91.982315 
	C92.955025,92.501808 92.937195,92.959404 92.912819,93.760612 
	C91.303520,94.119392 89.700783,94.134560 87.701736,94.197708 
	C87.241898,94.044556 87.178360,93.843430 87.040535,93.334747 
	C88.313576,92.027153 89.883186,92.758720 91.641876,92.274063 
	C92.128960,92.026840 92.295731,91.973633 92.717667,91.982315 
z"/>
<path fill="#F0F0F0" opacity="1.000000" stroke="none" 
	d="
M96.975189,103.592339 
	C96.878838,104.009552 96.535675,104.028770 96.364639,104.035606 
	C96.253571,102.216469 96.313545,100.390495 96.654465,98.305168 
	C96.980789,99.755585 97.026161,101.465355 96.975189,103.592339 
z"/>
<path fill="#010101" opacity="1.000000" stroke="none" 
	d="
M114.115776,133.373688 
	C113.840065,131.307510 113.823639,129.406082 113.820465,127.028496 
	C114.057510,126.531792 114.281311,126.511253 114.746368,126.726181 
	C114.985733,127.128441 114.983841,127.295219 114.985382,127.712158 
	C115.784859,128.973099 115.404350,130.142349 115.216965,131.625992 
	C114.985672,132.202255 114.969925,132.409058 114.932190,132.926178 
	C114.731819,133.337158 114.553444,133.437805 114.115776,133.373688 
z"/>
<path fill="#D0D0D0" opacity="1.000000" stroke="none" 
	d="
M91.570892,91.994057 
	C90.803780,93.534126 89.193672,92.910751 87.352219,93.012833 
	C86.966255,93.027191 86.555580,92.963165 86.351639,92.923233 
	C87.522690,90.998337 89.495949,92.200363 91.570892,91.994057 
z"/>
<path fill="#F0F0F0" opacity="1.000000" stroke="none" 
	d="
M96.132942,118.354630 
	C96.197823,117.957108 96.538849,117.970383 96.709198,117.980377 
	C96.928200,119.695114 96.976852,121.399857 96.980011,123.529800 
	C95.458153,122.418495 96.226173,120.508209 96.132942,118.354630 
z"/>
<path fill="#444444" opacity="1.000000" stroke="none" 
	d="
M115.272560,131.798431 
	C115.016266,130.920212 115.031120,129.844971 115.017395,128.366028 
	C116.338348,128.997772 115.997536,130.290970 115.272560,131.798431 
z"/>
<path fill="#444444" opacity="1.000000" stroke="none" 
	d="
M113.877365,125.422997 
	C113.922661,124.972969 113.945900,124.797020 113.996567,124.356781 
	C115.078819,124.141953 115.950447,124.343269 115.142670,125.876572 
	C114.750084,126.166893 114.600624,126.315895 114.144913,126.545059 
	C113.838669,126.625214 113.715042,126.407806 113.809860,126.326286 
	C113.888222,126.062202 113.871765,125.879631 113.877365,125.422997 
z"/>
<path fill="#A7A7A7" opacity="1.000000" stroke="none" 
	d="
M113.678345,133.304550 
	C114.031845,133.224167 114.207199,133.239380 114.646362,133.245544 
	C114.801033,133.787598 114.691887,134.338699 114.329941,135.030182 
	C113.765289,134.964874 113.453438,134.759155 113.065536,134.284119 
	C113.090942,133.752777 113.261185,133.547897 113.678345,133.304550 
z"/>
<path fill="#9D9D9D" opacity="1.000000" stroke="none" 
	d="
M109.841545,136.360855 
	C110.258240,136.163147 110.590996,136.267456 110.934006,136.662689 
	C110.548706,136.856674 110.153160,136.759781 109.841545,136.360855 
z"/>
<path fill="#A7A7A7" opacity="1.000000" stroke="none" 
	d="
M113.868179,126.606071 
	C114.011803,126.517555 114.184944,126.409904 114.628807,126.160080 
	C114.899536,126.017899 114.963829,126.487892 114.975723,126.724777 
	C114.783173,126.928528 114.578712,126.895401 114.103973,126.707306 
	C113.833702,126.552338 113.897697,126.586929 113.868179,126.606071 
z"/>
<path fill="#F0F0F0" opacity="1.000000" stroke="none" 
	d="
M77.765999,87.350204 
	C77.712967,87.372452 77.880630,87.191101 77.880630,87.191101 
	C77.880630,87.191101 77.707657,87.302673 77.804520,87.355469 
	C77.901375,87.408257 77.819031,87.327950 77.765999,87.350204 
z"/>
<path fill="#7E7E7E" opacity="1.000000" stroke="none" 
	d="
M85.752686,94.009659 
	C85.916092,94.241470 85.764069,94.511688 85.324173,94.843613 
	C85.248352,94.663689 85.382004,94.377937 85.752686,94.009659 
z"/>
<path fill="#A7A7A7" opacity="1.000000" stroke="none" 
	d="
M96.180069,126.313431 
	C98.116272,125.976517 100.263710,125.978172 102.889908,125.958054 
	C101.214783,127.850624 98.773071,126.959137 96.180069,126.313431 
z"/>
</svg>